#!OML:ASF E:\motion texture\Top Level 1\Subject 1\Session 1\male.ASF
:FULLY-SPECIFIED
:DEGREES
564
root -31.7194 17.8417 0.0472498 728.515 -88.5772 -722.559
lowerback 1.21219 -1.94666 -2.56106
upperback -0.631152 -2.7208 -2.85065
thorax -1.34738 -1.36843 -1.42464
lowerneck -13.3129 -8.99158 -13.1622
upperneck 14.381 -11.6157 10.9269
head 8.06276 -5.38814 4.38717
rclavicle -3.67752e-015 -7.95139e-015
rhumerus 13.1272 21.9245 -75.3178
rradius 91.546
rwrist 37.6345
rhand -37.7479 -27.413
rfingers 7.12502
rthumb -10.7961 -417.116
lclavicle -3.67752e-015 -7.95139e-015
lhumerus 9.70343 -25.1319 91.2939
lradius 77.4967
lwrist 9.19148
lhand -18.861 40.1506
lfingers 7.12502
lthumb 7.43932 69.9998
rfemur -35.4353 -5.26557 21.177
rtibia 44.9862
rfoot 0.613753 -15.0092
rtoes 8.63384
lfemur -10.6205 -7.50068 -21.7747
ltibia 22.3085
lfoot -13.2357 -3.67342
ltoes 3.93563
565
root -31.8575 17.8366 0.0264396 726.569 -88.1613 -720.494
lowerback 1.27589 -1.95913 -2.65633
upperback -0.580451 -2.74292 -2.92598
thorax -1.33064 -1.38002 -1.44702
lowerneck -13.1949 -9.03367 -13.2618
upperneck 14.3167 -11.6918 11.075
head 8.04663 -5.422 4.44573
rclavicle 2.68359e-015 2.54444e-014
rhumerus 14.2132 22.1551 -74.9582
rradius 91.0494
rwrist 37.876
rhand -38.0173 -27.2963
rfingers 7.12502
rthumb -11.0559 -416.985
lclavicle 2.68359e-015 2.54444e-014
lhumerus 10.8257 -25.3527 91.4201
lradius 77.5392
lwrist 10.4016
lhand -18.7669 40.5619
lfingers 7.12502
lthumb 7.53013 70.4079
rfemur -35.8154 -5.44794 21.102
rtibia 43.2682
rfoot 0.744607 -15.2582
rtoes 8.62587
lfemur -10.1972 -7.60723 -21.7866
ltibia 22.2115
lfoot -13.5541 -3.86723
ltoes 3.68004
566
root -31.9971 17.8306 0.00510813 725.442 -87.7556 -719.245
lowerback 1.33036 -1.96755 -2.7434
upperback -0.529184 -2.75901 -2.99916
thorax -1.30835 -1.38873 -1.47228
lowerneck -13.0776 -9.07798 -13.3594
upperneck 14.2531 -11.771 11.2208
head 8.03124 -5.4575 4.5027
rclavicle 2.37548e-014 6.36111e-015
rhumerus 15.2616 22.4093 -74.6008
rradius 90.5408
rwrist 38.0786
rhand -38.2425 -27.1219
rfingers 7.12502
rthumb -11.2732 -416.799
lclavicle 2.37548e-014 6.36111e-015
lhumerus 11.8339 -25.5358 91.579
lradius 77.6187
lwrist 11.64
lhand -18.6717 40.9717
lfingers 7.12502
lthumb 7.62201 70.8144
rfemur -36.1505 -5.61887 21.0247
rtibia 41.5523
rfoot 0.902414 -15.4917
rtoes 8.61272
lfemur -9.78656 -7.70454 -21.7866
ltibia 22.1378
lfoot -13.8682 -4.06017
ltoes 3.41151
567
root -32.1382 17.8236 -0.0167549 724.762 -87.3627 -718.439
lowerback 1.37569 -1.97187 -2.82193
upperback -0.476824 -2.76893 -3.06936
thorax -1.28001 -1.39446 -1.49976
lowerneck -12.958 -9.12414 -13.4589
upperneck 14.1861 -11.853 11.369
head 8.01518 -5.49443 4.56045
rclavicle 2.0276e-014 -6.36111e-015
rhumerus 16.2734 22.6928 -74.2439
rradius 90.0228
rwrist 38.2389
rhand -38.4215 -26.8983
rfingers 7.12502
rthumb -11.4458 -416.566
lclavicle 2.0276e-014 -6.36111e-015
lhumerus 12.7274 -25.6841 91.7659
lradius 77.736
lwrist 12.91
lhand -18.5824 41.369
lfingers 7.12502
lthumb 7.70819 71.2086
rfemur -36.4441 -5.77734 20.9474
rtibia 39.8562
rfoot 1.0883 -15.7223
rtoes 8.63147
lfemur -9.39039 -7.79105 -21.7732
ltibia 22.0932
lfoot -14.1781 -4.25392
ltoes 3.11539
568
root -32.2809 17.8158 -0.0391785 724.402 -86.9837 -717.953
lowerback 1.41345 -1.9721 -2.88872
upperback -0.425126 -2.77267 -3.13573
thorax -1.24841 -1.39719 -1.5303
lowerneck -12.836 -9.17207 -13.5569
upperneck 14.1184 -11.9375 11.5145
head 7.99879 -5.53295 4.61677
rclavicle -2.01766e-014 -5.56597e-014
rhumerus 17.2424 23.0111 -73.8882
rradius 89.4989
rwrist 38.3555
rhand -38.5505 -26.6315
rfingers 7.12502
rthumb -11.5702 -416.292
lclavicle -2.01766e-014 -5.56597e-014
lhumerus 13.498 -25.7988 91.9787
lradius 77.8933
lwrist 14.2038
lhand -18.497 41.7454
lfingers 7.12502
lthumb 7.79062 71.5819
rfemur -36.6959 -5.91914 20.8742
rtibia 38.1896
rfoot 1.3084 -15.956
rtoes 8.72041
lfemur -9.00986 -7.86529 -21.7418
ltibia 22.0811
lfoot -14.4813 -4.45094
ltoes 2.79499
569
root -32.4254 17.8073 -0.0620787 724.281 -86.6195 -717.704
lowerback 1.442 -1.96868 -2.94113
upperback -0.372153 -2.77055 -3.19782
thorax -1.21074 -1.39711 -1.56499
lowerneck -12.7141 -9.22192 -13.6538
upperneck 14.0496 -12.0247 11.6588
head 7.98249 -5.57287 4.67212
rclavicle 2.15681e-014 4.77083e-015
rhumerus 18.1728 23.3702 -73.5309
rradius 88.9712
rwrist 38.4218
rhand -38.6269 -26.3251
rfingers 7.12502
rthumb -11.6439 -415.982
lclavicle 2.15681e-014 4.77083e-015
lhumerus 14.1467 -25.8799 92.2111
lradius 78.0902
lwrist 15.5104
lhand -18.4111 42.1073
lfingers 7.12502
lthumb 7.87355 71.9407
rfemur -36.9064 -6.04705 20.8092
rtibia 36.5628
rfoot 1.5526 -16.1882
rtoes 8.87788
lfemur -8.64447 -7.92678 -21.6909
ltibia 22.1045
lfoot -14.7761 -4.65336
ltoes 2.44653
570
root -32.5717 17.798 -0.0854832 724.328 -86.2705 -717.625
lowerback 1.46347 -1.96198 -2.98137
upperback -0.318367 -2.76312 -3.25439
thorax -1.1685 -1.39442 -1.60121
lowerneck -12.5923 -9.27367 -13.7498
upperneck 13.9787 -12.1145 11.8025
head 7.96605 -5.61413 4.72678
rclavicle -1.22253e-014 1.74931e-014
rhumerus 19.0592 23.7739 -73.1735
rradius 88.4417
rwrist 38.4333
rhand -38.6474 -25.9859
rfingers 7.12502
rthumb -11.6637 -415.641
lclavicle -1.22253e-014 1.74931e-014
lhumerus 14.6724 -25.9279 92.4591
lradius 78.3262
lwrist 16.8182
lhand -18.3251 42.4589
lfingers 7.12502
lthumb 7.95658 72.2891
rfemur -37.0794 -6.16501 20.7566
rtibia 34.9905
rfoot 1.81573 -16.4228
rtoes 9.10775
lfemur -8.29684 -7.97552 -21.6193
ltibia 22.1676
lfoot -15.0591 -4.86432
ltoes 2.07158
